<svg width="125" height="15" viewBox="0 0 125 15" fill="none" xmlns="http://www.w3.org/2000/svg">
<path d="M12.52 14H9.2L6.62 9.04H4.86V11.72H6.26V14H0.78V11.72H2.18V3.28H0.78V0.999999H6.66C8.27333 0.999999 9.51333 1.33333 10.38 2C11.2467 2.65333 11.68 3.63333 11.68 4.94C11.68 5.82 11.4533 6.56 11 7.16C10.5467 7.74667 9.94667 8.18667 9.2 8.48L10.96 11.72H12.52V14ZM8.8 5C8.8 4.34667 8.60667 3.9 8.22 3.66C7.83333 3.40667 7.15333 3.28 6.18 3.28H4.86V6.92H6.14C7.16667 6.92 7.86667 6.75333 8.24 6.42C8.61333 6.08667 8.8 5.61333 8.8 5ZM26.4939 14H21.3139V11.72H22.3539L21.8739 10.4H17.4539L16.9139 11.72H18.1339V14H13.0139V11.72H14.1939L17.9139 3.28H16.1139V0.999999H20.5739L25.2539 11.72H26.4939V14ZM21.1539 8.48L19.7939 4.82H19.6739L18.2139 8.48H21.1539ZM39.0975 9.08H38.4575V14H36.3775L36.1175 12.64C35.7175 13.1067 35.2042 13.4867 34.5775 13.78C33.9642 14.06 33.2375 14.2 32.3975 14.2C30.5708 14.2 29.1175 13.5667 28.0375 12.3C26.9708 11.0333 26.4375 9.46667 26.4375 7.6C26.4375 5.73333 27.0042 4.13333 28.1375 2.8C29.2708 1.46667 30.9375 0.799999 33.1375 0.799999C34.1908 0.799999 35.1442 0.953333 35.9975 1.26C36.8642 1.56667 37.5108 1.93333 37.9375 2.36L38.2975 5.18L36.1375 5.38L35.7775 3.86C35.4308 3.63333 34.9908 3.46 34.4575 3.34C33.9375 3.22 33.4575 3.16 33.0175 3.16C31.9508 3.16 31.0642 3.52 30.3575 4.24C29.6642 4.96 29.3175 6.06667 29.3175 7.56C29.3175 9 29.6442 10.0733 30.2975 10.78C30.9642 11.4867 31.8242 11.84 32.8775 11.84C33.7575 11.84 34.4575 11.6067 34.9775 11.14C35.4975 10.6733 35.7575 10.0133 35.7575 9.16V9.08H33.2175V6.82H39.0975V9.08ZM45.8303 14H40.3503V11.72H41.7503V3.28H40.3503V0.999999H45.8303V3.28H44.4303V11.72H45.8303V14ZM61.2616 3.28H59.8616V14L58.3616 14.02L51.3816 5.76H51.3016V11.72H53.1016V14H47.4016V11.72H48.8016V3.28H47.1816V0.999999H50.7216L57.2816 8.72H57.3616V3.28H55.4816V0.999999H61.2616V3.28ZM74.742 9.08H74.102V14H72.022L71.762 12.64C71.362 13.1067 70.8487 13.4867 70.222 13.78C69.6087 14.06 68.882 14.2 68.042 14.2C66.2154 14.2 64.762 13.5667 63.682 12.3C62.6154 11.0333 62.082 9.46667 62.082 7.6C62.082 5.73333 62.6487 4.13333 63.782 2.8C64.9154 1.46667 66.582 0.799999 68.782 0.799999C69.8354 0.799999 70.7887 0.953333 71.642 1.26C72.5087 1.56667 73.1554 1.93333 73.582 2.36L73.942 5.18L71.782 5.38L71.422 3.86C71.0754 3.63333 70.6354 3.46 70.102 3.34C69.582 3.22 69.102 3.16 68.662 3.16C67.5954 3.16 66.7087 3.52 66.002 4.24C65.3087 4.96 64.962 6.06667 64.962 7.56C64.962 9 65.2887 10.0733 65.942 10.78C66.6087 11.4867 67.4687 11.84 68.522 11.84C69.402 11.84 70.102 11.6067 70.622 11.14C71.142 10.6733 71.402 10.0133 71.402 9.16V9.08H68.862V6.82H74.742V9.08ZM87.1748 10.14C87.1748 11.18 86.8215 12.0867 86.1148 12.86C85.4215 13.62 84.3282 14 82.8348 14H75.9948V11.72H77.3948V3.28H75.9948V0.999999H82.7548C83.9415 0.999999 84.8948 1.28 85.6148 1.84C86.3482 2.38667 86.7148 3.12 86.7148 4.04C86.7148 4.72 86.5082 5.31333 86.0948 5.82C85.6815 6.32667 85.1015 6.64 84.3548 6.76V6.84C85.2882 6.97333 85.9882 7.34 86.4548 7.94C86.9348 8.54 87.1748 9.27333 87.1748 10.14ZM83.8348 4.74C83.8348 4.15333 83.6548 3.76667 83.2948 3.58C82.9482 3.38 82.5348 3.28 82.0548 3.28H80.0748V6.32H81.8548C82.6148 6.32 83.1348 6.16667 83.4148 5.86C83.6948 5.55333 83.8348 5.18 83.8348 4.74ZM84.2948 10.04C84.2948 8.94667 83.6348 8.4 82.3148 8.4H80.0748V11.72H82.1348C83.5748 11.72 84.2948 11.16 84.2948 10.04ZM101.416 7.48C101.416 9.32 100.823 10.9 99.6363 12.22C98.4629 13.54 96.8229 14.2 94.7163 14.2C92.5963 14.2 90.9696 13.54 89.8363 12.22C88.7029 10.9 88.1363 9.33333 88.1363 7.52C88.1363 5.62667 88.7363 4.03333 89.9363 2.74C91.1363 1.44667 92.7563 0.799999 94.7963 0.799999C96.8763 0.799999 98.4963 1.46 99.6563 2.78C100.83 4.08667 101.416 5.65333 101.416 7.48ZM98.5163 7.56C98.5163 6.17333 98.1963 5.09333 97.5563 4.32C96.9163 3.54667 95.9896 3.16 94.7763 3.16C93.4829 3.16 92.5363 3.57333 91.9363 4.4C91.3363 5.21333 91.0363 6.23333 91.0363 7.46C91.0363 8.64667 91.3296 9.67333 91.9163 10.54C92.5029 11.4067 93.4829 11.84 94.8563 11.84C96.1229 11.84 97.0496 11.4467 97.6363 10.66C98.2229 9.86 98.5163 8.82667 98.5163 7.56ZM112.22 14H102.46V11.72H103.86V3.28H102.46V0.999999H108.36V3.28H106.54V11.72H109.94L110.34 9.2L112.62 9.4L112.22 14ZM124.455 5.4L122.175 5.6L121.775 3.28H119.715V11.72H121.835V14H115.035V11.72H117.035V3.28H114.975L114.575 5.6L112.295 5.4L112.695 0.999999H124.055L124.455 5.4Z" fill="black"/>
</svg>
