<svg width="1446" height="265" viewBox="0 0 1446 265" fill="none" xmlns="http://www.w3.org/2000/svg">
<rect width="1446" height="265" fill="black" fill-opacity="0.4"/>
<path d="M458.616 64.696L455.976 65.752L449.88 56.968H438.504V69.928H444.216L447.72 64.552H450.408V78.616L447.288 80.152L444.168 73.624H438.504V86.104L446.856 87.928L445.272 91.048H425.304V88.36L429.816 84.808V57.976L424.488 56.392L426.072 53.272H455.16L458.616 52.456V64.696ZM486.744 91H475.8V86.824L470.376 91.096C469.736 91.352 468.936 91.48 467.976 91.48C464.904 91.48 462.68 90.728 461.304 89.224C459.96 87.72 459.288 85.912 459.288 83.8C459.288 82.552 459.672 81.336 460.44 80.152C461.208 78.936 462.312 77.816 463.752 76.792H475.8V75.976C475.8 74.216 475.32 72.92 474.36 72.088C473.4 71.256 472.12 70.84 470.52 70.84C468.28 70.84 465.352 71.72 461.736 73.48L460.296 70.744L466.968 65.368C468.6 64.888 470.504 64.648 472.68 64.648C476.264 64.648 479.032 65.464 480.984 67.096C482.968 68.728 483.96 71.096 483.96 74.2V86.2L488.28 87.88L486.744 91ZM470.424 85.048C472.056 85.048 473.848 84.376 475.8 83.032V79.96H468.072C467.816 80.344 467.624 80.712 467.496 81.064C467.4 81.384 467.352 81.752 467.352 82.168C467.352 82.968 467.624 83.64 468.168 84.184C468.744 84.728 469.496 85 470.424 85V85.048ZM506.858 71.464C505.706 71.464 504.554 71.976 503.402 73V85.96L510.698 87.88L509.162 91H490.97V88.312L495.242 84.712V73.816L490.97 71.128V68.44L500.954 64.216L502.778 69.544L507.146 65.032C507.818 64.776 508.602 64.648 509.498 64.648C511.162 64.648 512.586 65.032 513.77 65.8C514.986 66.568 515.834 67.624 516.314 68.968L511.706 74.728H508.682C508.65 73.576 508.49 72.76 508.202 72.28C507.914 71.768 507.466 71.512 506.858 71.512V71.464ZM562.281 91.048H531.945V88.36L536.457 84.808V57.976L531.129 56.392L532.713 53.272H561.801L565.257 52.408V64.648L562.617 65.704L556.713 56.92H545.145V69.88H550.857L554.361 64.504H557.049V78.472L553.929 80.056L550.809 73.576H545.145V87.352H556.329L563.097 77.56L565.737 78.664V91.912L562.281 91.048ZM598.776 91H587.832V86.824L582.408 91.096C581.768 91.352 580.968 91.48 580.008 91.48C576.936 91.48 574.712 90.728 573.336 89.224C571.992 87.72 571.32 85.912 571.32 83.8C571.32 82.552 571.704 81.336 572.472 80.152C573.24 78.936 574.344 77.816 575.784 76.792H587.832V75.976C587.832 74.216 587.352 72.92 586.392 72.088C585.432 71.256 584.152 70.84 582.552 70.84C580.312 70.84 577.384 71.72 573.768 73.48L572.328 70.744L579 65.368C580.632 64.888 582.536 64.648 584.712 64.648C588.296 64.648 591.064 65.464 593.016 67.096C595 68.728 595.992 71.096 595.992 74.2V86.2L600.312 87.88L598.776 91ZM582.456 85.048C584.088 85.048 585.88 84.376 587.832 83.032V79.96H580.104C579.848 80.344 579.656 80.712 579.528 81.064C579.432 81.384 579.384 81.752 579.384 82.168C579.384 82.968 579.656 83.64 580.2 84.184C580.776 84.728 581.528 85 582.456 85V85.048ZM616.922 84.904C616.922 84.296 616.506 83.688 615.674 83.08C614.842 82.44 613.562 81.64 611.834 80.68C610.138 79.72 608.778 78.904 607.754 78.232C606.73 77.528 605.834 76.744 605.066 75.88C604.33 74.984 603.962 74.024 603.962 73C603.962 71.848 604.506 70.616 605.594 69.304C606.714 67.992 608.074 66.888 609.674 65.992C611.274 65.096 612.746 64.648 614.09 64.648C615.722 64.648 617.626 64.84 619.802 65.224C622.01 65.576 623.61 65.976 624.602 66.424V74.44H621.578C620.714 72.84 619.674 71.592 618.458 70.696C617.274 69.8 616.042 69.352 614.762 69.352C614.122 69.352 613.61 69.544 613.226 69.928C612.842 70.28 612.65 70.712 612.65 71.224C612.65 71.896 613.066 72.552 613.898 73.192C614.762 73.832 616.122 74.68 617.978 75.736C620.442 77.08 622.33 78.296 623.642 79.384C624.986 80.472 625.658 81.72 625.658 83.128C625.658 84.312 625.082 85.56 623.93 86.872C622.81 88.152 621.418 89.24 619.754 90.136C618.122 91.032 616.618 91.48 615.242 91.48C613.482 91.48 611.386 91.304 608.954 90.952C606.554 90.568 604.842 90.152 603.818 89.704V81.4H606.842C607.802 83.096 608.986 84.424 610.394 85.384C611.802 86.312 613.194 86.776 614.57 86.776C615.274 86.776 615.834 86.6 616.25 86.248C616.698 85.864 616.922 85.416 616.922 84.904ZM645.99 91.096C644.902 91.352 643.606 91.48 642.102 91.48C639.03 91.48 636.774 90.792 635.334 89.416C633.926 88.008 633.222 85.848 633.222 82.936V69.736H628.038V67.192L638.358 55.96H641.382V66.568H650.022V69.736H641.382V82.6C641.382 84.808 642.63 85.912 645.126 85.912C645.766 85.912 646.39 85.816 646.998 85.624C647.638 85.4 648.438 85.032 649.398 84.52L650.838 87.256L645.99 91.096ZM669.057 64.648C672.417 64.648 675.009 65.928 676.833 68.488C678.689 71.048 679.585 74.6 679.521 79.144H662.241C662.561 81.096 663.249 82.664 664.305 83.848C665.361 85 666.737 85.576 668.433 85.576C670.673 85.576 673.889 84.456 678.081 82.216L679.521 84.952L672.225 90.76C670.337 91.24 668.145 91.48 665.649 91.48C663.313 91.48 661.201 90.936 659.313 89.848C657.457 88.728 656.001 87.208 654.945 85.288C653.921 83.368 653.409 81.24 653.409 78.904C653.409 76.376 654.225 74.024 655.857 71.848C657.489 69.64 659.521 67.896 661.953 66.616C664.417 65.304 666.785 64.648 669.057 64.648ZM666.417 70.216C665.009 70.216 663.953 70.696 663.249 71.656C662.545 72.584 662.161 74.024 662.097 75.976H671.265C671.009 73.992 670.529 72.536 669.825 71.608C669.153 70.68 668.001 70.216 666.369 70.216H666.417ZM700.311 71.464C699.159 71.464 698.007 71.976 696.855 73V85.96L704.151 87.88L702.615 91H684.423V88.312L688.695 84.712V73.816L684.423 71.128V68.44L694.407 64.216L696.231 69.544L700.599 65.032C701.271 64.776 702.055 64.648 702.951 64.648C704.615 64.648 706.039 65.032 707.223 65.8C708.439 66.568 709.287 67.624 709.767 68.968L705.159 74.728H702.135C702.103 73.576 701.943 72.76 701.655 72.28C701.367 71.768 700.919 71.512 700.311 71.512V71.464ZM743.24 91H732.344V75.64C732.344 74.136 732.104 73.08 731.624 72.472C731.176 71.832 730.376 71.512 729.224 71.512C727.528 71.512 725.848 72.056 724.184 73.144V86.44L728.504 87.88L726.92 91H711.752V88.312L716.023 84.712V73.816L711.752 71.128V68.44L721.736 64.216L723.608 69.784L729.56 65.032C730.424 64.776 731.4 64.648 732.488 64.648C734.92 64.648 736.856 65.32 738.296 66.664C739.768 67.976 740.504 69.768 740.504 72.04V86.44L744.824 87.88L743.24 91ZM796.541 59.512V76.12C796.541 79.48 795.693 82.36 793.997 84.76C792.333 87.16 790.253 88.968 787.757 90.184C785.293 91.368 782.893 91.96 780.557 91.96C777.485 91.96 774.717 91.336 772.253 90.088C769.821 88.808 767.917 87.064 766.541 84.856C765.197 82.616 764.525 80.104 764.525 77.32V57.784L759.245 56.392L760.781 53.272H777.773V55.96L773.213 59.512V75.592C773.213 79.016 774.093 81.688 775.853 83.608C777.613 85.496 780.269 86.44 783.821 86.44C785.165 86.44 786.493 86.04 787.805 85.24C789.117 84.408 790.205 83.208 791.069 81.64C791.933 80.072 792.365 78.216 792.365 76.072V58.552L786.797 56.392L788.333 53.272H801.101V55.96L796.541 59.512ZM835.49 91H824.594V75.64C824.594 74.136 824.354 73.08 823.874 72.472C823.426 71.832 822.626 71.512 821.474 71.512C819.778 71.512 818.098 72.056 816.434 73.144V86.44L820.754 87.88L819.17 91H804.002V88.312L808.273 84.712V73.816L804.002 71.128V68.44L813.986 64.216L815.858 69.784L821.81 65.032C822.674 64.776 823.65 64.648 824.738 64.648C827.17 64.648 829.106 65.32 830.546 66.664C832.018 67.976 832.754 69.768 832.754 72.04V86.44L837.074 87.88L835.49 91ZM854.888 91H839.72V88.312L843.992 84.712V73.576L839.72 70.744V68.056L849.128 64.216H852.152V86.44L856.472 87.88L854.888 91ZM848.024 49.768C849.4 49.768 850.52 50.216 851.384 51.112C852.28 51.976 852.728 53.064 852.728 54.376C852.728 55.304 852.408 56.168 851.768 56.968C851.128 57.768 850.328 58.408 849.368 58.888C848.408 59.368 847.48 59.608 846.584 59.608C845.24 59.608 844.12 59.176 843.224 58.312C842.36 57.416 841.928 56.312 841.928 55C841.928 54.072 842.248 53.208 842.888 52.408C843.528 51.608 844.312 50.968 845.24 50.488C846.2 50.008 847.128 49.768 848.024 49.768ZM887.202 67.816L874.914 91H868.866L861.714 73.624L857.058 70.936V68.248L867.666 64.216L869.49 71.464L874.722 84.232L880.53 72.904L873.666 68.248L875.202 65.128H887.202V67.816ZM905.495 64.648C908.855 64.648 911.447 65.928 913.271 68.488C915.127 71.048 916.023 74.6 915.959 79.144H898.679C898.999 81.096 899.687 82.664 900.743 83.848C901.799 85 903.175 85.576 904.871 85.576C907.111 85.576 910.327 84.456 914.519 82.216L915.959 84.952L908.663 90.76C906.775 91.24 904.583 91.48 902.087 91.48C899.751 91.48 897.639 90.936 895.751 89.848C893.895 88.728 892.439 87.208 891.383 85.288C890.359 83.368 889.847 81.24 889.847 78.904C889.847 76.376 890.663 74.024 892.295 71.848C893.927 69.64 895.959 67.896 898.391 66.616C900.855 65.304 903.223 64.648 905.495 64.648ZM902.855 70.216C901.447 70.216 900.391 70.696 899.687 71.656C898.983 72.584 898.599 74.024 898.535 75.976H907.703C907.447 73.992 906.967 72.536 906.263 71.608C905.591 70.68 904.439 70.216 902.807 70.216H902.855ZM936.749 71.464C935.597 71.464 934.445 71.976 933.293 73V85.96L940.589 87.88L939.053 91H920.861V88.312L925.133 84.712V73.816L920.861 71.128V68.44L930.845 64.216L932.669 69.544L937.037 65.032C937.709 64.776 938.493 64.648 939.389 64.648C941.053 64.648 942.477 65.032 943.661 65.8C944.877 66.568 945.725 67.624 946.205 68.968L941.597 74.728H938.573C938.541 73.576 938.381 72.76 938.093 72.28C937.805 71.768 937.357 71.512 936.749 71.512V71.464ZM962.109 84.904C962.109 84.296 961.693 83.688 960.861 83.08C960.029 82.44 958.749 81.64 957.021 80.68C955.325 79.72 953.965 78.904 952.941 78.232C951.917 77.528 951.021 76.744 950.253 75.88C949.517 74.984 949.149 74.024 949.149 73C949.149 71.848 949.693 70.616 950.781 69.304C951.901 67.992 953.261 66.888 954.861 65.992C956.461 65.096 957.933 64.648 959.277 64.648C960.909 64.648 962.813 64.84 964.989 65.224C967.197 65.576 968.797 65.976 969.789 66.424V74.44H966.765C965.901 72.84 964.861 71.592 963.645 70.696C962.461 69.8 961.229 69.352 959.949 69.352C959.309 69.352 958.797 69.544 958.413 69.928C958.029 70.28 957.837 70.712 957.837 71.224C957.837 71.896 958.253 72.552 959.085 73.192C959.949 73.832 961.309 74.68 963.165 75.736C965.629 77.08 967.517 78.296 968.829 79.384C970.173 80.472 970.845 81.72 970.845 83.128C970.845 84.312 970.269 85.56 969.117 86.872C967.997 88.152 966.605 89.24 964.941 90.136C963.309 91.032 961.805 91.48 960.429 91.48C958.669 91.48 956.573 91.304 954.141 90.952C951.741 90.568 950.029 90.152 949.005 89.704V81.4H952.029C952.989 83.096 954.173 84.424 955.581 85.384C956.989 86.312 958.381 86.776 959.757 86.776C960.461 86.776 961.021 86.6 961.437 86.248C961.885 85.864 962.109 85.416 962.109 84.904ZM990.17 91H975.002V88.312L979.273 84.712V73.576L975.002 70.744V68.056L984.41 64.216H987.434V86.44L991.754 87.88L990.17 91ZM983.306 49.768C984.682 49.768 985.802 50.216 986.666 51.112C987.562 51.976 988.01 53.064 988.01 54.376C988.01 55.304 987.69 56.168 987.049 56.968C986.41 57.768 985.61 58.408 984.65 58.888C983.69 59.368 982.762 59.608 981.866 59.608C980.522 59.608 979.402 59.176 978.506 58.312C977.642 57.416 977.21 56.312 977.21 55C977.21 54.072 977.53 53.208 978.17 52.408C978.81 51.608 979.594 50.968 980.522 50.488C981.482 50.008 982.41 49.768 983.306 49.768ZM1010.77 91.096C1009.68 91.352 1008.39 91.48 1006.88 91.48C1003.81 91.48 1001.56 90.792 1000.12 89.416C998.707 88.008 998.003 85.848 998.003 82.936V69.736H992.819V67.192L1003.14 55.96H1006.16V66.568H1014.8V69.736H1006.16V82.6C1006.16 84.808 1007.41 85.912 1009.91 85.912C1010.55 85.912 1011.17 85.816 1011.78 85.624C1012.42 85.4 1013.22 85.032 1014.18 84.52L1015.62 87.256L1010.77 91.096ZM1046.16 67.768L1033.87 90.952L1022.59 103.624L1019.56 101.272C1021.93 98.424 1023.6 95.976 1024.56 93.928C1025.52 91.912 1026.06 89.592 1026.19 86.968L1020.67 73.624L1016.01 70.936V68.248L1026.62 64.216L1028.44 71.464L1033.68 84.232L1039.48 72.904L1032.62 68.248L1034.16 65.128L1046.16 65.08V67.768Z" fill="white"/>
<path d="M286.808 143H278.84V142.016L281.24 140.36L279.536 136.232H271.736L270.032 140.24L274.016 141.8L273.416 143H265.952V142.016L268.352 140.168L274.88 124.904L278.024 123.68L284.96 140.432L287.408 141.8L286.808 143ZM275.72 126.944L272.336 134.864H278.984L275.72 126.944ZM303.385 143H298.465V141.248L296.209 143.048C295.697 143.176 295.089 143.24 294.385 143.24C293.329 143.24 292.377 142.968 291.529 142.424C290.697 141.864 290.041 141.112 289.561 140.168C289.097 139.208 288.865 138.152 288.865 137C288.865 135.752 289.249 134.592 290.017 133.52C290.801 132.432 291.777 131.568 292.945 130.928C294.113 130.272 295.241 129.944 296.329 129.944C297.097 129.944 297.809 130.16 298.465 130.592V126.176L296.329 124.712V123.728L300.673 122.048H301.825V141.008L303.985 141.8L303.385 143ZM295.705 140.696C296.185 140.696 296.641 140.64 297.073 140.528C297.505 140.4 297.969 140.176 298.465 139.856V134.72C298.369 134 298.017 133.408 297.409 132.944C296.817 132.48 295.993 132.248 294.937 132.248C293.289 132.248 292.465 133.456 292.465 135.872C292.465 137.248 292.745 138.4 293.305 139.328C293.865 140.256 294.665 140.72 295.705 140.72V140.696ZM320.541 143H315.621V141.248L313.365 143.048C312.853 143.176 312.245 143.24 311.541 143.24C310.485 143.24 309.533 142.968 308.685 142.424C307.853 141.864 307.197 141.112 306.717 140.168C306.253 139.208 306.021 138.152 306.021 137C306.021 135.752 306.405 134.592 307.173 133.52C307.957 132.432 308.933 131.568 310.101 130.928C311.269 130.272 312.397 129.944 313.485 129.944C314.253 129.944 314.965 130.16 315.621 130.592V126.176L313.485 124.712V123.728L317.829 122.048H318.981V141.008L321.141 141.8L320.541 143ZM312.861 140.696C313.341 140.696 313.797 140.64 314.229 140.528C314.661 140.4 315.125 140.176 315.621 139.856V134.72C315.525 134 315.173 133.408 314.565 132.944C313.973 132.48 313.149 132.248 312.093 132.248C310.445 132.248 309.621 133.456 309.621 135.872C309.621 137.248 309.901 138.4 310.461 139.328C311.021 140.256 311.821 140.72 312.861 140.72V140.696ZM330.473 132.8C329.769 132.8 329.049 133.168 328.313 133.904V140.792L331.793 141.8L331.193 143H322.817V142.016L324.953 140.288V134.048L322.817 132.752V131.768L327.281 129.728L328.097 132.56L330.473 130.136C330.761 130.008 331.177 129.944 331.721 129.944C332.377 129.944 332.945 130.104 333.425 130.424C333.905 130.744 334.257 131.192 334.481 131.768L332.609 134.12H331.457C331.409 133.656 331.305 133.328 331.145 133.136C331.001 132.928 330.777 132.824 330.473 132.824V132.8ZM344.446 142.976C343.71 143.152 342.806 143.24 341.734 143.24C340.63 143.24 339.638 142.968 338.758 142.424C337.894 141.864 337.214 141.112 336.718 140.168C336.222 139.208 335.974 138.152 335.974 137C335.974 135.752 336.358 134.592 337.126 133.52C337.91 132.432 338.886 131.568 340.054 130.928C341.222 130.272 342.35 129.944 343.438 129.944C345.022 129.944 346.254 130.56 347.134 131.792C348.014 133.024 348.446 134.68 348.43 136.76H339.622C339.75 137.976 340.11 138.96 340.702 139.712C341.31 140.464 342.126 140.84 343.15 140.84C344.222 140.84 345.758 140.128 347.758 138.704L348.454 139.808L344.446 142.976ZM342.07 132.248C340.486 132.248 339.654 133.344 339.574 135.536H344.782C344.654 134.752 344.51 134.144 344.35 133.712C344.206 133.264 343.95 132.912 343.582 132.656C343.23 132.384 342.726 132.248 342.07 132.248ZM358.687 140.216C358.687 139.832 358.447 139.464 357.967 139.112C357.503 138.76 356.791 138.328 355.831 137.816C354.583 137.144 353.623 136.544 352.951 136.016C352.279 135.472 351.943 134.84 351.943 134.12C351.943 133.544 352.199 132.928 352.711 132.272C353.223 131.616 353.847 131.064 354.583 130.616C355.335 130.168 356.023 129.944 356.647 129.944C357.415 129.944 358.303 130.04 359.311 130.232C360.335 130.408 361.079 130.608 361.543 130.832V134.648H360.391C359.927 133.736 359.367 133.024 358.711 132.512C358.071 132 357.415 131.744 356.743 131.744C356.311 131.744 355.967 131.864 355.711 132.104C355.455 132.328 355.327 132.608 355.327 132.944C355.327 133.376 355.567 133.776 356.047 134.144C356.543 134.512 357.287 134.96 358.279 135.488C359.111 135.936 359.767 136.32 360.247 136.64C360.743 136.944 361.167 137.304 361.519 137.72C361.871 138.12 362.047 138.568 362.047 139.064C362.047 139.656 361.775 140.28 361.231 140.936C360.703 141.576 360.055 142.12 359.287 142.568C358.535 143.016 357.839 143.24 357.199 143.24C356.367 143.24 355.383 143.152 354.247 142.976C353.127 142.784 352.327 142.576 351.847 142.352V138.464H352.999C353.527 139.408 354.159 140.144 354.895 140.672C355.647 141.184 356.399 141.44 357.151 141.44C357.599 141.44 357.967 141.32 358.255 141.08C358.543 140.84 358.687 140.552 358.687 140.216ZM372.093 140.216C372.093 139.832 371.853 139.464 371.373 139.112C370.909 138.76 370.197 138.328 369.237 137.816C367.989 137.144 367.029 136.544 366.357 136.016C365.685 135.472 365.349 134.84 365.349 134.12C365.349 133.544 365.605 132.928 366.117 132.272C366.629 131.616 367.253 131.064 367.989 130.616C368.741 130.168 369.429 129.944 370.053 129.944C370.821 129.944 371.709 130.04 372.717 130.232C373.741 130.408 374.485 130.608 374.949 130.832V134.648H373.797C373.333 133.736 372.773 133.024 372.117 132.512C371.477 132 370.821 131.744 370.149 131.744C369.717 131.744 369.373 131.864 369.117 132.104C368.861 132.328 368.733 132.608 368.733 132.944C368.733 133.376 368.973 133.776 369.453 134.144C369.949 134.512 370.693 134.96 371.685 135.488C372.517 135.936 373.173 136.32 373.653 136.64C374.149 136.944 374.573 137.304 374.925 137.72C375.277 138.12 375.453 138.568 375.453 139.064C375.453 139.656 375.181 140.28 374.637 140.936C374.109 141.576 373.461 142.12 372.693 142.568C371.941 143.016 371.245 143.24 370.605 143.24C369.773 143.24 368.789 143.152 367.653 142.976C366.533 142.784 365.733 142.576 365.253 142.352V138.464H366.405C366.933 139.408 367.565 140.144 368.301 140.672C369.053 141.184 369.805 141.44 370.557 141.44C371.005 141.44 371.373 141.32 371.661 141.08C371.949 140.84 372.093 140.552 372.093 140.216ZM381.179 129.944C381.755 129.944 382.219 130.136 382.571 130.52C382.939 130.904 383.123 131.384 383.123 131.96C383.123 132.376 382.987 132.76 382.715 133.112C382.459 133.464 382.131 133.752 381.731 133.976C381.347 134.184 380.971 134.288 380.603 134.288C380.043 134.288 379.579 134.096 379.211 133.712C378.843 133.312 378.659 132.824 378.659 132.248C378.659 131.848 378.787 131.472 379.043 131.12C379.315 130.752 379.643 130.464 380.027 130.256C380.427 130.048 380.811 129.944 381.179 129.944ZM381.179 138.896C381.755 138.896 382.219 139.088 382.571 139.472C382.939 139.856 383.123 140.336 383.123 140.912C383.123 141.328 382.987 141.712 382.715 142.064C382.459 142.416 382.131 142.704 381.731 142.928C381.347 143.136 380.971 143.24 380.603 143.24C380.043 143.24 379.579 143.048 379.211 142.664C378.843 142.264 378.659 141.776 378.659 141.2C378.659 140.8 378.787 140.424 379.043 140.072C379.315 139.704 379.643 139.416 380.027 139.208C380.427 139 380.811 138.896 381.179 138.896ZM409.793 126.944V143H408.161L396.833 129.2V140.528L399.713 141.8L399.113 143H392.945V142.016L395.201 140.192V126.728L392.657 125.336L393.257 124.136H397.121L408.161 137.552V126.56L405.305 125.336L405.905 124.136H412.073V125.12L409.793 126.944ZM421.092 143H414.036V142.016L416.172 140.288V133.856L414.036 132.392V131.408L418.38 129.728H419.532V141.008L421.692 141.8L421.092 143ZM417.78 122.504C418.34 122.504 418.804 122.704 419.172 123.104C419.54 123.488 419.724 123.968 419.724 124.544C419.724 124.944 419.588 125.328 419.316 125.696C419.06 126.048 418.732 126.328 418.332 126.536C417.948 126.744 417.572 126.848 417.204 126.848C416.644 126.848 416.18 126.656 415.812 126.272C415.444 125.888 415.26 125.408 415.26 124.832C415.26 124.416 415.388 124.032 415.644 123.68C415.916 123.328 416.244 123.048 416.628 122.84C417.028 122.616 417.412 122.504 417.78 122.504ZM430.919 129.944C431.623 129.944 432.431 130.04 433.343 130.232C434.255 130.408 434.919 130.608 435.335 130.832V134.816H434.183C433.575 134.016 432.871 133.392 432.071 132.944C431.271 132.48 430.447 132.248 429.599 132.248C428.927 132.248 428.415 132.56 428.063 133.184C427.711 133.792 427.535 134.68 427.535 135.848C427.535 137.272 427.839 138.464 428.447 139.424C429.055 140.368 429.935 140.84 431.087 140.84C432.063 140.84 433.439 140.24 435.215 139.04L435.935 140.144L432.335 142.976C431.631 143.152 430.751 143.24 429.695 143.24C428.591 143.24 427.599 142.968 426.719 142.424C425.855 141.864 425.175 141.112 424.679 140.168C424.183 139.208 423.935 138.152 423.935 137C423.935 135.752 424.295 134.592 425.015 133.52C425.735 132.432 426.639 131.568 427.727 130.928C428.831 130.272 429.895 129.944 430.919 129.944ZM451.584 143H446.664V140.912L443.952 143.048C443.632 143.176 443.232 143.24 442.752 143.24C441.312 143.24 440.264 142.888 439.608 142.184C438.968 141.464 438.648 140.6 438.648 139.592C438.648 139 438.848 138.424 439.248 137.864C439.664 137.288 440.248 136.744 441 136.232H446.664V135.128C446.664 133.304 445.688 132.392 443.736 132.392C442.712 132.392 441.4 132.928 439.8 134L439.08 132.92L442.488 130.208C443.16 130.032 444 129.944 445.008 129.944C446.592 129.944 447.824 130.32 448.704 131.072C449.584 131.824 450.024 132.92 450.024 134.36V140.96L452.184 141.8L451.584 143ZM443.688 140.72C444.584 140.72 445.576 140.312 446.664 139.496V137.456H442.56C442.24 137.84 442.08 138.304 442.08 138.848C442.08 139.376 442.224 139.824 442.512 140.192C442.816 140.544 443.208 140.72 443.688 140.72ZM469.072 143H464.152V135.08C464.152 134.232 464.024 133.648 463.768 133.328C463.512 132.992 463.064 132.824 462.424 132.824C461.944 132.824 461.464 132.904 460.984 133.064C460.504 133.224 459.96 133.528 459.352 133.976V141.008L461.512 141.8L460.912 143H453.856V142.016L455.992 140.288V134.048L453.856 132.752V131.768L458.32 129.728L459.16 132.704L462.4 130.136C462.736 130.008 463.2 129.944 463.792 129.944C464.928 129.944 465.832 130.28 466.504 130.952C467.176 131.608 467.512 132.504 467.512 133.64V141.008L469.672 141.8L469.072 143ZM479.094 129.944C480.198 129.944 481.19 130.224 482.07 130.784C482.95 131.328 483.63 132.072 484.11 133.016C484.606 133.96 484.854 135.008 484.854 136.16C484.854 137.408 484.462 138.576 483.678 139.664C482.91 140.752 481.942 141.624 480.774 142.28C479.606 142.92 478.478 143.24 477.39 143.24C476.286 143.24 475.294 142.968 474.414 142.424C473.55 141.864 472.87 141.112 472.374 140.168C471.878 139.208 471.63 138.152 471.63 137C471.63 135.752 472.014 134.592 472.782 133.52C473.566 132.432 474.542 131.568 475.71 130.928C476.878 130.272 478.006 129.944 479.094 129.944ZM477.702 132.248C476.902 132.248 476.294 132.552 475.878 133.16C475.478 133.768 475.278 134.664 475.278 135.848C475.278 137.304 475.582 138.512 476.19 139.472C476.798 140.432 477.662 140.912 478.782 140.912C480.414 140.912 481.23 139.704 481.23 137.288C481.23 135.848 480.926 134.648 480.318 133.688C479.71 132.728 478.838 132.248 477.702 132.248ZM495.262 132.8C494.558 132.8 493.838 133.168 493.102 133.904V140.792L496.582 141.8L495.982 143H487.606V142.016L489.742 140.288V134.048L487.606 132.752V131.768L492.07 129.728L492.886 132.56L495.262 130.136C495.55 130.008 495.966 129.944 496.51 129.944C497.166 129.944 497.734 130.104 498.214 130.424C498.694 130.744 499.046 131.192 499.27 131.768L497.398 134.12H496.246C496.198 133.656 496.094 133.328 495.934 133.136C495.79 132.928 495.566 132.824 495.262 132.824V132.8ZM525.271 143H520.495L515.479 134.576L514.399 133.808L514.831 132.92H516.103C517.095 132.92 517.879 132.648 518.455 132.104C519.031 131.56 519.319 130.808 519.319 129.848C519.319 128.632 518.983 127.632 518.311 126.848C517.655 126.064 516.695 125.672 515.431 125.672C514.599 125.672 513.839 125.92 513.151 126.416V140.984L515.719 141.8L515.119 143H507.343V142.016L509.599 140.192V126.104L507.055 125.336L507.655 124.136H510.919C512.343 124.136 513.743 124.088 515.119 123.992C516.143 123.928 516.895 123.896 517.375 123.896C518.511 123.896 519.519 124.112 520.399 124.544C521.279 124.976 521.959 125.568 522.439 126.32C522.919 127.056 523.159 127.872 523.159 128.768C523.159 129.936 522.655 131.008 521.647 131.984C520.639 132.96 519.423 133.68 517.999 134.144L519.727 134.696L523.207 140.528L525.871 141.8L525.271 143ZM535.836 142.976C535.1 143.152 534.196 143.24 533.124 143.24C532.02 143.24 531.028 142.968 530.148 142.424C529.284 141.864 528.604 141.112 528.108 140.168C527.612 139.208 527.364 138.152 527.364 137C527.364 135.752 527.748 134.592 528.516 133.52C529.3 132.432 530.276 131.568 531.444 130.928C532.612 130.272 533.74 129.944 534.828 129.944C536.412 129.944 537.644 130.56 538.524 131.792C539.404 133.024 539.836 134.68 539.82 136.76H531.012C531.14 137.976 531.5 138.96 532.092 139.712C532.7 140.464 533.516 140.84 534.54 140.84C535.612 140.84 537.148 140.128 539.148 138.704L539.844 139.808L535.836 142.976ZM533.46 132.248C531.876 132.248 531.044 133.344 530.964 135.536H536.172C536.044 134.752 535.9 134.144 535.74 133.712C535.596 133.264 535.34 132.912 534.972 132.656C534.62 132.384 534.116 132.248 533.46 132.248ZM555.862 131.192L549.742 143.024L544.486 149.36L543.334 148.472C544.198 147.496 544.862 146.64 545.326 145.904C545.806 145.168 546.142 144.424 546.334 143.672C546.542 142.936 546.654 142.088 546.67 141.128L543.766 134.072L541.486 132.728V131.744L546.07 129.728L546.982 133.352L549.79 140.192L552.982 133.712L549.67 131.384L550.27 130.184L555.862 130.208V131.192ZM565.86 142.976C565.124 143.152 564.22 143.24 563.148 143.24C562.044 143.24 561.052 142.968 560.172 142.424C559.308 141.864 558.628 141.112 558.132 140.168C557.636 139.208 557.388 138.152 557.388 137C557.388 135.752 557.772 134.592 558.54 133.52C559.324 132.432 560.3 131.568 561.468 130.928C562.636 130.272 563.764 129.944 564.852 129.944C566.436 129.944 567.668 130.56 568.548 131.792C569.428 133.024 569.86 134.68 569.844 136.76H561.036C561.164 137.976 561.524 138.96 562.116 139.712C562.724 140.464 563.54 140.84 564.564 140.84C565.636 140.84 567.172 140.128 569.172 138.704L569.868 139.808L565.86 142.976ZM563.484 132.248C561.9 132.248 561.068 133.344 560.988 135.536H566.196C566.068 134.752 565.924 134.144 565.764 133.712C565.62 133.264 565.364 132.912 564.996 132.656C564.644 132.384 564.14 132.248 563.484 132.248ZM580.101 140.216C580.101 139.832 579.861 139.464 579.381 139.112C578.917 138.76 578.205 138.328 577.245 137.816C575.997 137.144 575.037 136.544 574.365 136.016C573.693 135.472 573.357 134.84 573.357 134.12C573.357 133.544 573.613 132.928 574.125 132.272C574.637 131.616 575.261 131.064 575.997 130.616C576.749 130.168 577.437 129.944 578.061 129.944C578.829 129.944 579.717 130.04 580.725 130.232C581.749 130.408 582.493 130.608 582.957 130.832V134.648H581.805C581.341 133.736 580.781 133.024 580.125 132.512C579.485 132 578.829 131.744 578.157 131.744C577.725 131.744 577.381 131.864 577.125 132.104C576.869 132.328 576.741 132.608 576.741 132.944C576.741 133.376 576.981 133.776 577.461 134.144C577.957 134.512 578.701 134.96 579.693 135.488C580.525 135.936 581.181 136.32 581.661 136.64C582.157 136.944 582.581 137.304 582.933 137.72C583.285 138.12 583.461 138.568 583.461 139.064C583.461 139.656 583.189 140.28 582.645 140.936C582.117 141.576 581.469 142.12 580.701 142.568C579.949 143.016 579.253 143.24 578.613 143.24C577.781 143.24 576.797 143.152 575.661 142.976C574.541 142.784 573.741 142.576 573.261 142.352V138.464H574.413C574.941 139.408 575.573 140.144 576.309 140.672C577.061 141.184 577.813 141.44 578.565 141.44C579.013 141.44 579.381 141.32 579.669 141.08C579.957 140.84 580.101 140.552 580.101 140.216ZM603.258 138.872C603.258 138.376 603.058 137.912 602.658 137.48C602.274 137.048 601.794 136.656 601.218 136.304C600.642 135.936 599.842 135.48 598.818 134.936C597.618 134.296 596.65 133.744 595.914 133.28C595.178 132.8 594.546 132.248 594.018 131.624C593.506 130.984 593.25 130.28 593.25 129.512C593.25 128.712 593.594 127.856 594.282 126.944C594.986 126.016 595.842 125.24 596.85 124.616C597.858 123.976 598.786 123.656 599.634 123.656C600.658 123.656 601.85 123.776 603.21 124.016C604.586 124.256 605.586 124.512 606.21 124.784V129.68H604.77C604.034 128.384 603.218 127.376 602.322 126.656C601.442 125.936 600.514 125.576 599.538 125.576C598.722 125.576 598.082 125.832 597.618 126.344C597.154 126.84 596.922 127.488 596.922 128.288C596.922 128.816 597.122 129.312 597.522 129.776C597.922 130.224 598.418 130.632 599.01 131C599.618 131.368 600.434 131.816 601.458 132.344C602.626 132.952 603.578 133.488 604.314 133.952C605.05 134.416 605.666 134.96 606.162 135.584C606.674 136.208 606.93 136.896 606.93 137.648C606.93 138.448 606.554 139.312 605.802 140.24C605.066 141.152 604.162 141.928 603.09 142.568C602.018 143.192 601.042 143.504 600.162 143.504C599.09 143.504 597.81 143.384 596.322 143.144C594.85 142.904 593.786 142.648 593.13 142.376V137.48H594.594C595.362 138.776 596.242 139.784 597.234 140.504C598.226 141.224 599.242 141.584 600.282 141.584C601.178 141.584 601.898 141.32 602.442 140.792C602.986 140.248 603.258 139.608 603.258 138.872ZM617.231 132.8C616.527 132.8 615.807 133.168 615.071 133.904V140.792L618.551 141.8L617.951 143H609.575V142.016L611.711 140.288V134.048L609.575 132.752V131.768L614.039 129.728L614.855 132.56L617.231 130.136C617.519 130.008 617.935 129.944 618.479 129.944C619.135 129.944 619.703 130.104 620.183 130.424C620.663 130.744 621.015 131.192 621.239 131.768L619.367 134.12H618.215C618.167 133.656 618.063 133.328 617.903 133.136C617.759 132.928 617.535 132.824 617.231 132.824V132.8ZM622.139 149.336L620.987 148.448C621.771 147.504 622.339 146.688 622.691 146C623.043 145.328 623.259 144.584 623.339 143.768L621.371 142.592V141.608L625.835 139.568L626.987 143.48L622.139 149.336ZM647.157 138.872C647.157 138.376 646.957 137.912 646.557 137.48C646.173 137.048 645.693 136.656 645.117 136.304C644.541 135.936 643.741 135.48 642.717 134.936C641.517 134.296 640.549 133.744 639.813 133.28C639.077 132.8 638.445 132.248 637.917 131.624C637.405 130.984 637.149 130.28 637.149 129.512C637.149 128.712 637.493 127.856 638.181 126.944C638.885 126.016 639.741 125.24 640.749 124.616C641.757 123.976 642.685 123.656 643.533 123.656C644.557 123.656 645.749 123.776 647.109 124.016C648.485 124.256 649.485 124.512 650.109 124.784V129.68H648.669C647.933 128.384 647.117 127.376 646.221 126.656C645.341 125.936 644.413 125.576 643.437 125.576C642.621 125.576 641.981 125.832 641.517 126.344C641.053 126.84 640.821 127.488 640.821 128.288C640.821 128.816 641.021 129.312 641.421 129.776C641.821 130.224 642.317 130.632 642.909 131C643.517 131.368 644.333 131.816 645.357 132.344C646.525 132.952 647.477 133.488 648.213 133.952C648.949 134.416 649.565 134.96 650.061 135.584C650.573 136.208 650.829 136.896 650.829 137.648C650.829 138.448 650.453 139.312 649.701 140.24C648.965 141.152 648.061 141.928 646.989 142.568C645.917 143.192 644.941 143.504 644.061 143.504C642.989 143.504 641.709 143.384 640.221 143.144C638.749 142.904 637.685 142.648 637.029 142.376V137.48H638.493C639.261 138.776 640.141 139.784 641.133 140.504C642.125 141.224 643.141 141.584 644.181 141.584C645.077 141.584 645.797 141.32 646.341 140.792C646.885 140.248 647.157 139.608 647.157 138.872ZM660.817 143.048C660.385 143.176 659.857 143.24 659.233 143.24C657.809 143.24 656.769 142.896 656.113 142.208C655.473 141.504 655.153 140.424 655.153 138.968V132.128H652.561V131.024L657.361 125.6H658.513V130.904H662.833V132.128H658.513V139.064C658.513 139.704 658.665 140.168 658.969 140.456C659.289 140.744 659.761 140.888 660.385 140.888C660.721 140.888 661.041 140.832 661.345 140.72C661.665 140.592 662.057 140.36 662.521 140.024L663.241 141.128L660.817 143.048ZM672.426 132.8C671.722 132.8 671.002 133.168 670.266 133.904V140.792L673.746 141.8L673.146 143H664.77V142.016L666.906 140.288V134.048L664.77 132.752V131.768L669.234 129.728L670.05 132.56L672.426 130.136C672.714 130.008 673.13 129.944 673.674 129.944C674.33 129.944 674.898 130.104 675.378 130.424C675.858 130.744 676.21 131.192 676.434 131.768L674.562 134.12H673.41C673.362 133.656 673.258 133.328 673.098 133.136C672.954 132.928 672.73 132.824 672.426 132.824V132.8ZM686.399 142.976C685.663 143.152 684.759 143.24 683.687 143.24C682.583 143.24 681.591 142.968 680.711 142.424C679.847 141.864 679.167 141.112 678.671 140.168C678.175 139.208 677.927 138.152 677.927 137C677.927 135.752 678.311 134.592 679.079 133.52C679.863 132.432 680.839 131.568 682.007 130.928C683.175 130.272 684.303 129.944 685.391 129.944C686.975 129.944 688.207 130.56 689.087 131.792C689.967 133.024 690.399 134.68 690.383 136.76H681.575C681.703 137.976 682.063 138.96 682.655 139.712C683.263 140.464 684.079 140.84 685.103 140.84C686.175 140.84 687.711 140.128 689.711 138.704L690.407 139.808L686.399 142.976ZM684.023 132.248C682.439 132.248 681.607 133.344 681.527 135.536H686.735C686.607 134.752 686.463 134.144 686.303 133.712C686.159 133.264 685.903 132.912 685.535 132.656C685.183 132.384 684.679 132.248 684.023 132.248ZM702.008 142.976C701.272 143.152 700.368 143.24 699.296 143.24C698.192 143.24 697.2 142.968 696.32 142.424C695.456 141.864 694.776 141.112 694.28 140.168C693.784 139.208 693.536 138.152 693.536 137C693.536 135.752 693.92 134.592 694.688 133.52C695.472 132.432 696.448 131.568 697.616 130.928C698.784 130.272 699.912 129.944 701 129.944C702.584 129.944 703.816 130.56 704.696 131.792C705.576 133.024 706.008 134.68 705.992 136.76H697.184C697.312 137.976 697.672 138.96 698.264 139.712C698.872 140.464 699.688 140.84 700.712 140.84C701.784 140.84 703.32 140.128 705.32 138.704L706.016 139.808L702.008 142.976ZM699.632 132.248C698.048 132.248 697.216 133.344 697.136 135.536H702.344C702.216 134.752 702.072 134.144 701.912 133.712C701.768 133.264 701.512 132.912 701.144 132.656C700.792 132.384 700.288 132.248 699.632 132.248ZM716.153 143.048C715.721 143.176 715.193 143.24 714.569 143.24C713.145 143.24 712.105 142.896 711.449 142.208C710.809 141.504 710.489 140.424 710.489 138.968V132.128H707.897V131.024L712.697 125.6H713.849V130.904H718.169V132.128H713.849V139.064C713.849 139.704 714.001 140.168 714.305 140.456C714.625 140.744 715.097 140.888 715.721 140.888C716.057 140.888 716.377 140.832 716.681 140.72C717.001 140.592 717.393 140.36 717.857 140.024L718.577 141.128L716.153 143.048ZM721.162 149.336L720.01 148.448C720.794 147.504 721.362 146.688 721.714 146C722.066 145.328 722.282 144.584 722.362 143.768L720.394 142.592V141.608L724.858 139.568L726.01 143.48L721.162 149.336ZM746.18 138.872C746.18 138.376 745.98 137.912 745.58 137.48C745.196 137.048 744.716 136.656 744.14 136.304C743.564 135.936 742.764 135.48 741.74 134.936C740.54 134.296 739.572 133.744 738.836 133.28C738.1 132.8 737.468 132.248 736.94 131.624C736.428 130.984 736.172 130.28 736.172 129.512C736.172 128.712 736.516 127.856 737.204 126.944C737.908 126.016 738.764 125.24 739.772 124.616C740.78 123.976 741.708 123.656 742.556 123.656C743.58 123.656 744.772 123.776 746.132 124.016C747.508 124.256 748.508 124.512 749.132 124.784V129.68H747.692C746.956 128.384 746.14 127.376 745.244 126.656C744.364 125.936 743.436 125.576 742.46 125.576C741.644 125.576 741.004 125.832 740.54 126.344C740.076 126.84 739.844 127.488 739.844 128.288C739.844 128.816 740.044 129.312 740.444 129.776C740.844 130.224 741.34 130.632 741.932 131C742.54 131.368 743.356 131.816 744.38 132.344C745.548 132.952 746.5 133.488 747.236 133.952C747.972 134.416 748.588 134.96 749.084 135.584C749.596 136.208 749.852 136.896 749.852 137.648C749.852 138.448 749.476 139.312 748.724 140.24C747.988 141.152 747.084 141.928 746.012 142.568C744.94 143.192 743.964 143.504 743.084 143.504C742.012 143.504 740.732 143.384 739.244 143.144C737.772 142.904 736.708 142.648 736.052 142.376V137.48H737.516C738.284 138.776 739.164 139.784 740.156 140.504C741.148 141.224 742.164 141.584 743.204 141.584C744.1 141.584 744.82 141.32 745.364 140.792C745.908 140.248 746.18 139.608 746.18 138.872ZM765.553 143H760.633V140.912L757.921 143.048C757.601 143.176 757.201 143.24 756.721 143.24C755.281 143.24 754.233 142.888 753.577 142.184C752.937 141.464 752.617 140.6 752.617 139.592C752.617 139 752.817 138.424 753.217 137.864C753.633 137.288 754.217 136.744 754.969 136.232H760.633V135.128C760.633 133.304 759.657 132.392 757.705 132.392C756.681 132.392 755.369 132.928 753.769 134L753.049 132.92L756.457 130.208C757.129 130.032 757.969 129.944 758.977 129.944C760.561 129.944 761.793 130.32 762.673 131.072C763.553 131.824 763.993 132.92 763.993 134.36V140.96L766.153 141.8L765.553 143ZM757.657 140.72C758.553 140.72 759.545 140.312 760.633 139.496V137.456H756.529C756.209 137.84 756.049 138.304 756.049 138.848C756.049 139.376 756.193 139.824 756.481 140.192C756.785 140.544 757.177 140.72 757.657 140.72ZM790.577 143H785.657V134.96C785.657 134.16 785.529 133.608 785.273 133.304C785.033 132.984 784.601 132.824 783.977 132.824C783.545 132.824 783.105 132.904 782.657 133.064C782.225 133.224 781.729 133.528 781.169 133.976V141.032L783.257 141.8L782.657 143H777.809V134.96C777.809 134.16 777.681 133.608 777.425 133.304C777.185 132.984 776.753 132.824 776.129 132.824C775.681 132.824 775.233 132.904 774.785 133.064C774.353 133.224 773.857 133.528 773.297 133.976V141.032L775.409 141.8L774.809 143H767.801V142.016L769.937 140.288V134.048L767.801 132.752V131.768L772.265 129.728L773.105 132.68L776.177 130.136C776.481 130.008 776.921 129.944 777.497 129.944C778.441 129.944 779.225 130.184 779.849 130.664C780.473 131.128 780.881 131.776 781.073 132.608L784.049 130.136C784.353 130.008 784.793 129.944 785.369 129.944C786.489 129.944 787.377 130.28 788.033 130.952C788.705 131.608 789.041 132.504 789.041 133.64V141.008L791.177 141.8L790.577 143ZM800.512 143.24C799.728 143.24 799.016 143.016 798.376 142.568V146.912L801.856 147.896L801.256 149.096H792.88V148.112L795.016 146.408V134.048L792.88 132.752V131.768L797.344 129.728L798.184 132.704L801.448 130.136C801.96 130.008 802.544 129.944 803.2 129.944C804.112 129.944 804.928 130.224 805.648 130.784C806.384 131.328 806.96 132.072 807.376 133.016C807.792 133.96 808 135.008 808 136.16C808 137.408 807.608 138.576 806.824 139.664C806.056 140.752 805.088 141.624 803.92 142.28C802.752 142.92 801.624 143.24 800.536 143.24H800.512ZM801.856 132.632C801.264 132.632 800.696 132.736 800.152 132.944C799.624 133.136 799.024 133.504 798.352 134.048V138.008C798.352 138.84 798.656 139.536 799.264 140.096C799.888 140.64 800.768 140.912 801.904 140.912C803.552 140.912 804.376 139.712 804.376 137.312C804.376 135.984 804.16 134.872 803.728 133.976C803.296 133.08 802.672 132.632 801.856 132.632ZM823.819 143H818.899V140.912L816.187 143.048C815.867 143.176 815.467 143.24 814.987 143.24C813.547 143.24 812.499 142.888 811.843 142.184C811.203 141.464 810.883 140.6 810.883 139.592C810.883 139 811.083 138.424 811.483 137.864C811.899 137.288 812.483 136.744 813.235 136.232H818.899V135.128C818.899 133.304 817.923 132.392 815.971 132.392C814.947 132.392 813.635 132.928 812.035 134L811.315 132.92L814.723 130.208C815.395 130.032 816.235 129.944 817.243 129.944C818.827 129.944 820.059 130.32 820.939 131.072C821.819 131.824 822.259 132.92 822.259 134.36V140.96L824.419 141.8L823.819 143ZM815.923 140.72C816.819 140.72 817.811 140.312 818.899 139.496V137.456H814.795C814.475 137.84 814.315 138.304 814.315 138.848C814.315 139.376 814.459 139.824 814.747 140.192C815.051 140.544 815.443 140.72 815.923 140.72ZM832.667 143H825.611V142.016L827.747 140.288V126.176L825.611 124.712V123.728L829.955 122.048H831.107V141.008L833.267 141.8L832.667 143ZM842.962 129.944C844.066 129.944 845.058 130.224 845.938 130.784C846.818 131.328 847.498 132.072 847.978 133.016C848.474 133.96 848.722 135.008 848.722 136.16C848.722 137.408 848.33 138.576 847.546 139.664C846.778 140.752 845.81 141.624 844.642 142.28C843.474 142.92 842.346 143.24 841.258 143.24C840.154 143.24 839.162 142.968 838.282 142.424C837.418 141.864 836.738 141.112 836.242 140.168C835.746 139.208 835.498 138.152 835.498 137C835.498 135.752 835.882 134.592 836.65 133.52C837.434 132.432 838.41 131.568 839.578 130.928C840.746 130.272 841.874 129.944 842.962 129.944ZM841.57 132.248C840.77 132.248 840.162 132.552 839.746 133.16C839.346 133.768 839.146 134.664 839.146 135.848C839.146 137.304 839.45 138.512 840.058 139.472C840.666 140.432 841.53 140.912 842.65 140.912C844.282 140.912 845.098 139.704 845.098 137.288C845.098 135.848 844.794 134.648 844.186 133.688C843.578 132.728 842.706 132.248 841.57 132.248ZM858.817 129.944C859.521 129.944 860.329 130.04 861.241 130.232C862.153 130.408 862.817 130.608 863.233 130.832V134.816H862.081C861.473 134.016 860.769 133.392 859.969 132.944C859.169 132.48 858.345 132.248 857.497 132.248C856.825 132.248 856.313 132.56 855.961 133.184C855.609 133.792 855.433 134.68 855.433 135.848C855.433 137.272 855.737 138.464 856.345 139.424C856.953 140.368 857.833 140.84 858.985 140.84C859.961 140.84 861.337 140.24 863.113 139.04L863.833 140.144L860.233 142.976C859.529 143.152 858.649 143.24 857.593 143.24C856.489 143.24 855.497 142.968 854.617 142.424C853.753 141.864 853.073 141.112 852.577 140.168C852.081 139.208 851.833 138.152 851.833 137C851.833 135.752 852.193 134.592 852.913 133.52C853.633 132.432 854.537 131.568 855.625 130.928C856.729 130.272 857.793 129.944 858.817 129.944ZM867.483 149.336L866.331 148.448C867.115 147.504 867.683 146.688 868.035 146C868.387 145.328 868.603 144.584 868.683 143.768L866.715 142.592V141.608L871.179 139.568L872.331 143.48L867.483 149.336ZM905.629 143H897.853V142.016L900.109 140.24V127.664L893.869 143H892.261L886.021 127.568V140.624L888.589 141.8L887.989 143H882.133V142.016L884.389 140.24V126.56L881.845 125.336L882.445 124.136H888.253L894.036 138.536L899.797 124.136H905.917V125.12L903.637 126.896V141.008L906.229 141.8L905.629 143ZM921.483 143H916.563V140.912L913.851 143.048C913.531 143.176 913.131 143.24 912.651 143.24C911.211 143.24 910.163 142.888 909.507 142.184C908.867 141.464 908.547 140.6 908.547 139.592C908.547 139 908.747 138.424 909.147 137.864C909.563 137.288 910.147 136.744 910.899 136.232H916.563V135.128C916.563 133.304 915.587 132.392 913.635 132.392C912.611 132.392 911.299 132.928 909.699 134L908.979 132.92L912.387 130.208C913.059 130.032 913.899 129.944 914.907 129.944C916.491 129.944 917.723 130.32 918.603 131.072C919.483 131.824 919.923 132.92 919.923 134.36V140.96L922.083 141.8L921.483 143ZM913.587 140.72C914.483 140.72 915.475 140.312 916.563 139.496V137.456H912.459C912.139 137.84 911.979 138.304 911.979 138.848C911.979 139.376 912.123 139.824 912.411 140.192C912.715 140.544 913.107 140.72 913.587 140.72ZM938.971 143H934.051V135.08C934.051 134.232 933.923 133.648 933.667 133.328C933.411 132.992 932.963 132.824 932.323 132.824C931.843 132.824 931.363 132.904 930.883 133.064C930.403 133.224 929.859 133.528 929.251 133.976V141.008L931.411 141.8L930.811 143H923.755V142.016L925.891 140.288V134.048L923.755 132.752V131.768L928.219 129.728L929.059 132.704L932.299 130.136C932.635 130.008 933.099 129.944 933.691 129.944C934.827 129.944 935.731 130.28 936.403 130.952C937.075 131.608 937.411 132.504 937.411 133.64V141.008L939.571 141.8L938.971 143ZM948.295 143H941.239V142.016L943.375 140.288V133.856L941.239 132.392V131.408L945.583 129.728H946.735V141.008L948.895 141.8L948.295 143ZM944.983 122.504C945.543 122.504 946.007 122.704 946.375 123.104C946.743 123.488 946.927 123.968 946.927 124.544C946.927 124.944 946.791 125.328 946.519 125.696C946.263 126.048 945.935 126.328 945.535 126.536C945.151 126.744 944.775 126.848 944.407 126.848C943.847 126.848 943.383 126.656 943.015 126.272C942.647 125.888 942.463 125.408 942.463 124.832C942.463 124.416 942.591 124.032 942.847 123.68C943.119 123.328 943.447 123.048 943.831 122.84C944.231 122.616 944.615 122.504 944.983 122.504ZM957.354 143H950.298V142.016L952.434 140.288V126.176L950.298 124.712V123.728L954.642 122.048H955.794V141.008L957.954 141.8L957.354 143ZM972.881 143H967.961V140.912L965.249 143.048C964.929 143.176 964.529 143.24 964.049 143.24C962.609 143.24 961.561 142.888 960.905 142.184C960.265 141.464 959.945 140.6 959.945 139.592C959.945 139 960.145 138.424 960.545 137.864C960.961 137.288 961.545 136.744 962.297 136.232H967.961V135.128C967.961 133.304 966.985 132.392 965.033 132.392C964.009 132.392 962.697 132.928 961.097 134L960.377 132.92L963.785 130.208C964.457 130.032 965.297 129.944 966.305 129.944C967.889 129.944 969.121 130.32 970.001 131.072C970.881 131.824 971.321 132.92 971.321 134.36V140.96L973.481 141.8L972.881 143ZM964.985 140.72C965.881 140.72 966.873 140.312 967.961 139.496V137.456H963.857C963.537 137.84 963.377 138.304 963.377 138.848C963.377 139.376 963.521 139.824 963.809 140.192C964.113 140.544 964.505 140.72 964.985 140.72ZM976.209 149.336L975.057 148.448C975.841 147.504 976.409 146.688 976.761 146C977.113 145.328 977.329 144.584 977.409 143.768L975.441 142.592V141.608L979.905 139.568L981.057 143.48L976.209 149.336ZM999.235 143H991.531V142.016L993.859 140.192V131.24L991.219 130.424L991.819 129.224H999.547V130.208L997.219 132.032V140.984L999.835 141.8L999.235 143ZM1011.52 128.984C1012.82 128.984 1013.98 129.28 1015 129.872C1016.03 130.464 1016.83 131.272 1017.4 132.296C1017.98 133.304 1018.27 134.432 1018.27 135.68C1018.27 137.024 1017.83 138.28 1016.95 139.448C1016.07 140.6 1014.96 141.52 1013.64 142.208C1012.32 142.896 1011.05 143.24 1009.82 143.24C1008.52 143.24 1007.36 142.944 1006.34 142.352C1005.32 141.76 1004.52 140.952 1003.94 139.928C1003.36 138.904 1003.08 137.768 1003.08 136.52C1003.08 135.192 1003.52 133.952 1004.4 132.8C1005.28 131.632 1006.38 130.704 1007.71 130.016C1009.04 129.328 1010.31 128.984 1011.52 128.984ZM1010.13 131.24C1007.86 131.24 1006.72 132.616 1006.72 135.368C1006.72 136.408 1006.89 137.352 1007.23 138.2C1007.56 139.048 1008.07 139.728 1008.74 140.24C1009.41 140.736 1010.24 140.984 1011.21 140.984C1013.48 140.984 1014.62 139.592 1014.62 136.808C1014.62 135.784 1014.45 134.856 1014.12 134.024C1013.78 133.176 1013.28 132.504 1012.6 132.008C1011.93 131.496 1011.11 131.24 1010.13 131.24ZM1029.83 128.984C1031.12 128.984 1032.28 129.28 1033.31 129.872C1034.33 130.464 1035.13 131.272 1035.71 132.296C1036.28 133.304 1036.57 134.432 1036.57 135.68C1036.57 137.024 1036.13 138.28 1035.25 139.448C1034.37 140.6 1033.27 141.52 1031.94 142.208C1030.63 142.896 1029.36 143.24 1028.12 143.24C1026.83 143.24 1025.67 142.944 1024.64 142.352C1023.62 141.76 1022.82 140.952 1022.24 139.928C1021.67 138.904 1021.38 137.768 1021.38 136.52C1021.38 135.192 1021.82 133.952 1022.7 132.8C1023.58 131.632 1024.68 130.704 1026.01 130.016C1027.34 129.328 1028.61 128.984 1029.83 128.984ZM1028.44 131.24C1026.16 131.24 1025.03 132.616 1025.03 135.368C1025.03 136.408 1025.2 137.352 1025.53 138.2C1025.87 139.048 1026.37 139.728 1027.04 140.24C1027.72 140.736 1028.54 140.984 1029.52 140.984C1031.79 140.984 1032.92 139.592 1032.92 136.808C1032.92 135.784 1032.76 134.856 1032.42 134.024C1032.08 133.176 1031.58 132.504 1030.91 132.008C1030.24 131.496 1029.41 131.24 1028.44 131.24ZM1049.5 131.288C1050.56 131.912 1051.42 132.472 1052.09 132.968C1052.78 133.464 1053.35 134.04 1053.8 134.696C1054.26 135.352 1054.49 136.08 1054.49 136.88C1054.49 137.744 1054.12 138.68 1053.37 139.688C1052.61 140.68 1051.69 141.52 1050.61 142.208C1049.53 142.88 1048.56 143.216 1047.68 143.216C1046.14 143.216 1044.77 142.968 1043.55 142.472C1042.35 141.96 1041.41 141.272 1040.72 140.408C1040.05 139.528 1039.71 138.56 1039.71 137.504C1039.71 136.688 1040.06 135.88 1040.77 135.08C1041.49 134.28 1042.68 133.28 1044.34 132.08C1043.29 131.376 1042.46 130.656 1041.87 129.92C1041.28 129.184 1040.98 128.352 1040.98 127.424C1040.98 126.656 1041.33 125.832 1042.04 124.952C1042.74 124.072 1043.6 123.328 1044.61 122.72C1045.63 122.112 1046.57 121.808 1047.41 121.808C1048.52 121.808 1049.49 122.008 1050.34 122.408C1051.21 122.792 1051.88 123.32 1052.36 123.992C1052.84 124.648 1053.08 125.368 1053.08 126.152C1053.01 126.84 1052.73 127.568 1052.24 128.336C1051.74 129.088 1050.83 130.072 1049.5 131.288ZM1046.91 123.728C1046.22 123.728 1045.65 123.976 1045.21 124.472C1044.76 124.952 1044.53 125.568 1044.53 126.32C1044.53 127.136 1044.85 127.872 1045.49 128.528C1046.13 129.168 1047.06 129.856 1048.28 130.592C1048.9 129.776 1049.29 129.152 1049.45 128.72C1049.63 128.288 1049.72 127.808 1049.72 127.28C1049.72 126.272 1049.45 125.432 1048.93 124.76C1048.41 124.072 1047.75 123.728 1046.93 123.728H1046.91ZM1047.75 141.32C1048.37 141.32 1048.92 141.168 1049.38 140.864C1049.85 140.544 1050.21 140.136 1050.46 139.64C1050.72 139.128 1050.85 138.584 1050.85 138.008C1050.85 137.4 1050.64 136.832 1050.22 136.304C1049.82 135.776 1049.33 135.304 1048.73 134.888C1048.14 134.472 1047.33 133.952 1046.29 133.328L1045.45 132.824C1044.58 133.608 1044.01 134.248 1043.72 134.744C1043.45 135.24 1043.31 135.784 1043.31 136.376C1043.31 137.24 1043.51 138.056 1043.91 138.824C1044.33 139.576 1044.88 140.184 1045.57 140.648C1046.25 141.096 1046.98 141.32 1047.75 141.32ZM1087.55 143H1079.77V142.016L1082.03 140.24V127.664L1075.79 143H1074.18L1067.94 127.568V140.624L1070.51 141.8L1069.91 143H1064.05V142.016L1066.31 140.24V126.56L1063.77 125.336L1064.37 124.136H1070.17L1075.96 138.536L1081.72 124.136H1087.84V125.12L1085.56 126.896V141.008L1088.15 141.8L1087.55 143ZM1099.16 142.976C1098.42 143.152 1097.52 143.24 1096.44 143.24C1095.34 143.24 1094.35 142.968 1093.47 142.424C1092.6 141.864 1091.92 141.112 1091.43 140.168C1090.93 139.208 1090.68 138.152 1090.68 137C1090.68 135.752 1091.07 134.592 1091.84 133.52C1092.62 132.432 1093.6 131.568 1094.76 130.928C1095.93 130.272 1097.06 129.944 1098.15 129.944C1099.73 129.944 1100.96 130.56 1101.84 131.792C1102.72 133.024 1103.16 134.68 1103.14 136.76H1094.33C1094.46 137.976 1094.82 138.96 1095.41 139.712C1096.02 140.464 1096.84 140.84 1097.86 140.84C1098.93 140.84 1100.47 140.128 1102.47 138.704L1103.16 139.808L1099.16 142.976ZM1096.78 132.248C1095.2 132.248 1094.36 133.344 1094.28 135.536H1099.49C1099.36 134.752 1099.22 134.144 1099.06 133.712C1098.92 133.264 1098.66 132.912 1098.29 132.656C1097.94 132.384 1097.44 132.248 1096.78 132.248ZM1113.3 143.048C1112.87 143.176 1112.34 143.24 1111.72 143.24C1110.29 143.24 1109.25 142.896 1108.6 142.208C1107.96 141.504 1107.64 140.424 1107.64 138.968V132.128H1105.05V131.024L1109.85 125.6H1111V130.904H1115.32V132.128H1111V139.064C1111 139.704 1111.15 140.168 1111.45 140.456C1111.77 140.744 1112.25 140.888 1112.87 140.888C1113.21 140.888 1113.53 140.832 1113.83 140.72C1114.15 140.592 1114.54 140.36 1115.01 140.024L1115.73 141.128L1113.3 143.048ZM1124.91 132.8C1124.21 132.8 1123.49 133.168 1122.75 133.904V140.792L1126.23 141.8L1125.63 143H1117.25V142.016L1119.39 140.288V134.048L1117.25 132.752V131.768L1121.72 129.728L1122.53 132.56L1124.91 130.136C1125.2 130.008 1125.61 129.944 1126.16 129.944C1126.81 129.944 1127.38 130.104 1127.86 130.424C1128.34 130.744 1128.69 131.192 1128.92 131.768L1127.05 134.12H1125.89C1125.85 133.656 1125.74 133.328 1125.58 133.136C1125.44 132.928 1125.21 132.824 1124.91 132.824V132.8ZM1137.9 129.944C1139 129.944 1140 130.224 1140.88 130.784C1141.76 131.328 1142.44 132.072 1142.92 133.016C1143.41 133.96 1143.66 135.008 1143.66 136.16C1143.66 137.408 1143.27 138.576 1142.48 139.664C1141.72 140.752 1140.75 141.624 1139.58 142.28C1138.41 142.92 1137.28 143.24 1136.2 143.24C1135.09 143.24 1134.1 142.968 1133.22 142.424C1132.36 141.864 1131.68 141.112 1131.18 140.168C1130.68 139.208 1130.44 138.152 1130.44 137C1130.44 135.752 1130.82 134.592 1131.59 133.52C1132.37 132.432 1133.35 131.568 1134.52 130.928C1135.68 130.272 1136.81 129.944 1137.9 129.944ZM1136.51 132.248C1135.71 132.248 1135.1 132.552 1134.68 133.16C1134.28 133.768 1134.08 134.664 1134.08 135.848C1134.08 137.304 1134.39 138.512 1135 139.472C1135.6 140.432 1136.47 140.912 1137.59 140.912C1139.22 140.912 1140.04 139.704 1140.04 137.288C1140.04 135.848 1139.73 134.648 1139.12 133.688C1138.52 132.728 1137.64 132.248 1136.51 132.248ZM1176.73 143H1168.95V142.016L1171.21 140.24V127.664L1164.97 143H1163.36L1157.12 127.568V140.624L1159.69 141.8L1159.09 143H1153.23V142.016L1155.49 140.24V126.56L1152.95 125.336L1153.55 124.136H1159.35L1165.14 138.536L1170.9 124.136H1177.02V125.12L1174.74 126.896V141.008L1177.33 141.8L1176.73 143ZM1192.58 143H1187.66V140.912L1184.95 143.048C1184.63 143.176 1184.23 143.24 1183.75 143.24C1182.31 143.24 1181.26 142.888 1180.61 142.184C1179.97 141.464 1179.65 140.6 1179.65 139.592C1179.65 139 1179.85 138.424 1180.25 137.864C1180.66 137.288 1181.25 136.744 1182 136.232H1187.66V135.128C1187.66 133.304 1186.69 132.392 1184.74 132.392C1183.71 132.392 1182.4 132.928 1180.8 134L1180.08 132.92L1183.49 130.208C1184.16 130.032 1185 129.944 1186.01 129.944C1187.59 129.944 1188.82 130.32 1189.7 131.072C1190.58 131.824 1191.02 132.92 1191.02 134.36V140.96L1193.18 141.8L1192.58 143ZM1184.69 140.72C1185.58 140.72 1186.58 140.312 1187.66 139.496V137.456H1183.56C1183.24 137.84 1183.08 138.304 1183.08 138.848C1183.08 139.376 1183.22 139.824 1183.51 140.192C1183.82 140.544 1184.21 140.72 1184.69 140.72ZM1210.07 143H1205.15V135.08C1205.15 134.232 1205.02 133.648 1204.77 133.328C1204.51 132.992 1204.06 132.824 1203.42 132.824C1202.94 132.824 1202.46 132.904 1201.98 133.064C1201.5 133.224 1200.96 133.528 1200.35 133.976V141.008L1202.51 141.8L1201.91 143H1194.86V142.016L1196.99 140.288V134.048L1194.86 132.752V131.768L1199.32 129.728L1200.16 132.704L1203.4 130.136C1203.74 130.008 1204.2 129.944 1204.79 129.944C1205.93 129.944 1206.83 130.28 1207.5 130.952C1208.18 131.608 1208.51 132.504 1208.51 133.64V141.008L1210.67 141.8L1210.07 143ZM1219.4 143H1212.34V142.016L1214.48 140.288V133.856L1212.34 132.392V131.408L1216.68 129.728H1217.84V141.008L1220 141.8L1219.4 143ZM1216.08 122.504C1216.64 122.504 1217.11 122.704 1217.48 123.104C1217.84 123.488 1218.03 123.968 1218.03 124.544C1218.03 124.944 1217.89 125.328 1217.62 125.696C1217.36 126.048 1217.04 126.328 1216.64 126.536C1216.25 126.744 1215.88 126.848 1215.51 126.848C1214.95 126.848 1214.48 126.656 1214.12 126.272C1213.75 125.888 1213.56 125.408 1213.56 124.832C1213.56 124.416 1213.69 124.032 1213.95 123.68C1214.22 123.328 1214.55 123.048 1214.93 122.84C1215.33 122.616 1215.72 122.504 1216.08 122.504ZM1228.46 143H1221.4V142.016L1223.54 140.288V126.176L1221.4 124.712V123.728L1225.74 122.048H1226.9V141.008L1229.06 141.8L1228.46 143ZM1243.98 143H1239.06V140.912L1236.35 143.048C1236.03 143.176 1235.63 143.24 1235.15 143.24C1233.71 143.24 1232.66 142.888 1232.01 142.184C1231.37 141.464 1231.05 140.6 1231.05 139.592C1231.05 139 1231.25 138.424 1231.65 137.864C1232.06 137.288 1232.65 136.744 1233.4 136.232H1239.06V135.128C1239.06 133.304 1238.09 132.392 1236.13 132.392C1235.11 132.392 1233.8 132.928 1232.2 134L1231.48 132.92L1234.89 130.208C1235.56 130.032 1236.4 129.944 1237.41 129.944C1238.99 129.944 1240.22 130.32 1241.1 131.072C1241.98 131.824 1242.42 132.92 1242.42 134.36V140.96L1244.58 141.8L1243.98 143ZM1236.09 140.72C1236.98 140.72 1237.97 140.312 1239.06 139.496V137.456H1234.96C1234.64 137.84 1234.48 138.304 1234.48 138.848C1234.48 139.376 1234.62 139.824 1234.91 140.192C1235.21 140.544 1235.61 140.72 1236.09 140.72Z" fill="white"/>
<path d="M266 147.056H376.859V148.448H266V147.056Z" fill="white"/>
<a href="https://www.google.com/search?client=opera-gx&#38;hs=gDq&#38;sa=X&#38;sca_esv=c2b470a1b23ad7ba&#38;biw=1875&#38;bih=931&#38;sxsrf=AHTn8zoayziLex3T4srAoQBeJ7IDIOoQbg:1742916383840&#38;q=far+eastern+university+address&#38;ludocid=7834918551748966138&#38;ved=2ahUKEwiP-7m_xaWMAxXhh1YBHVMFEbsQ6BN6BAgkEAI">
<rect fill="black" fill-opacity="0" y="0.052" width="110.869" height="61.896"/>
</a>
</svg>
